<svg xmlns="http://www.w3.org/2000/svg" enable-background="new 0 0 64 64" viewBox="0 0 64 64"><linearGradient id="a" x1="32.163" x2="32.163" y1="6.889" y2="57.066" gradientUnits="userSpaceOnUse"><stop offset="0" stop-color="#fff" stop-opacity=".25"/><stop offset="1" stop-color="#fed3be"/></linearGradient><path fill="url(#a)" d="M48.1,26.6c-0.8-2.8-0.9-5.8-1.5-8.7S45,12,42.8,10.1c-2.5-2.1-6-2.6-9.3-2.9c-3.9-0.4-8-0.8-11.4,1.2
			c-3.8,2.2-5.6,6.7-6.6,10.9c-1,4.3-1.6,8.8-4,12.4c-1.9,2.8-4.8,4.9-5.8,8.2c-1,3.1,0.1,6.5,2.2,8.9c2.1,2.5,4.9,4.1,7.9,5.3
			c11.8,4.8,25.8,3.8,36.8-2.6c2.2-1.3,4.4-2.8,5.7-5.1c1.1-1.8,1.3-4,0.6-6c-0.7-1.8-2-2.3-3.5-3.4C51.8,34.4,49.3,30.7,48.1,26.6z
			"/><path fill="#fed3be" stroke="#0000db" stroke-linecap="round" stroke-linejoin="round" stroke-miterlimit="10" stroke-width="1.267" d="M26.7,16.8c0,1.6-1.3,2.8-2.8,2.8S21,18.4,21,16.8c0-1.6,1.3-2.8,2.8-2.8S26.7,15.2,26.7,16.8z"/><path fill="#9495fa" stroke="#0000db" stroke-linecap="round" stroke-linejoin="round" stroke-miterlimit="10" stroke-width="1.267" d="M27.2,36.7v7.2c0,1-0.8,1.8-1.7,1.8c-0.5,0-0.9-0.2-1.2-0.5c-0.3-0.3-0.5-0.8-0.5-1.3l0-8.7v8.7v0
					c0,1-0.8,1.8-1.7,1.8c-0.5,0-0.9-0.2-1.2-0.5c-0.3-0.3-0.5-0.8-0.5-1.3v-7.2V36l-2.3-12c0.5-1.1,1.6-1.9,2.8-1.9h5.7
					c0.9,0,1.7,0.4,2.3,1.1"/><path fill="#fed3be" stroke="#0000db" stroke-linecap="round" stroke-linejoin="round" stroke-miterlimit="10" stroke-width="1.267" d="M44.7,16.8c0,1.6-1.3,2.8-2.8,2.8c-1.6,0-2.8-1.3-2.8-2.8c0-1.6,1.3-2.8,2.8-2.8
				C43.4,14,44.7,15.2,44.7,16.8z"/><path fill="#9495fa" stroke="#0000db" stroke-linecap="round" stroke-linejoin="round" stroke-miterlimit="10" stroke-width="1.267" d="M45.2,36v8c0,1-0.7,1.8-1.7,1.8c-0.5,0-0.9-0.2-1.2-0.5c-0.3-0.3-0.5-0.8-0.5-1.3l0-8.7v8.7v0
					c0,1-0.8,1.8-1.7,1.8c-0.5,0-0.9-0.2-1.2-0.5c-0.3-0.3-0.5-0.8-0.5-1.3v-7.2l-1.8-13.6c0.6-0.7,1.4-1.1,2.3-1.1h5.7
					c1.2,0,2.3,0.8,2.8,1.9"/><path fill="#fed3be" stroke="#0000db" stroke-linecap="round" stroke-linejoin="round" stroke-miterlimit="10" stroke-width="1.267" d="M36,17.2c0,1.7-1.4,3.1-3.1,3.1c-1.7,0-3.1-1.4-3.1-3.1c0-1.7,1.4-3.1,3.1-3.1C34.6,14.1,36,15.5,36,17.2z
				"/><path fill="#ff9d23" stroke="#0000db" stroke-linecap="round" stroke-linejoin="round" stroke-miterlimit="10" stroke-width="1.267" d="M29.2,35.2c0,0.9-0.7,1.6-1.5,1.6l0,0c-0.8,0-1.5-0.7-1.5-1.6v-8.3c0-2.1,1.6-3.8,3.5-3.8H36
					c1.9,0,3.5,1.7,3.5,3.8v8.3c0,0.9-0.7,1.6-1.5,1.6l0,0c-0.8,0-1.5-0.7-1.5-1.6"/><path fill="#ff9d23" stroke="#0000db" stroke-linecap="round" stroke-linejoin="round" stroke-miterlimit="10" stroke-width="1.267" d="M36.6,29.8v7.1v0.8v0.9v8.8c0,1.1-0.8,2-1.9,2l0,0c-1,0-1.9-0.9-1.9-2v-9.7v9.7c0,1.1-0.8,2-1.9,2l0,0
					c-1,0-1.9-0.9-1.9-2v-8v-1.7v-0.8v-7.1"/><path fill="#fed3be" stroke="#0000db" stroke-linecap="round" stroke-linejoin="round" stroke-miterlimit="10" stroke-width="1.267" d="M17.8,18.9c0,1.5-1.3,2.8-2.8,2.8c-1.5,0-2.8-1.3-2.8-2.8c0-1.5,1.3-2.8,2.8-2.8
				C16.6,16.1,17.8,17.3,17.8,18.9z"/><path fill="#f86c66" stroke="#0000db" stroke-linecap="round" stroke-linejoin="round" stroke-miterlimit="10" stroke-width="1.267" d="M11.7,34.8c0,0.8-0.6,1.4-1.3,1.4l0,0c-0.7,0-1.3-0.6-1.3-1.4v-7.4c0-1.9,1.4-3.4,3.1-3.4h5.6
					c1.7,0,3.1,1.5,3.1,3.4v7.4c0,0.8-0.6,1.4-1.3,1.4l0,0c-0.7,0-1.3-0.6-1.3-1.4"/><path fill="#f86c66" stroke="#0000db" stroke-linecap="round" stroke-linejoin="round" stroke-miterlimit="10" stroke-width="1.267" d="M18.3,30v6.3V37v0.8v7.8c0,1-0.7,1.8-1.6,1.8l0,0c-0.9,0-1.6-0.8-1.6-1.8V37v8.6c0,1-0.7,1.8-1.7,1.8l0,0
					c-0.9,0-1.7-0.8-1.7-1.8v-7.1V37v-0.7V30"/><path fill="#fed3be" stroke="#0000db" stroke-linecap="round" stroke-linejoin="round" stroke-miterlimit="10" stroke-width="1.267" d="M53.5,18.9c0,1.5-1.3,2.8-2.8,2.8c-1.5,0-2.8-1.3-2.8-2.8c0-1.5,1.3-2.8,2.8-2.8
				C52.2,16.1,53.5,17.3,53.5,18.9z"/><path fill="#f86c66" stroke="#0000db" stroke-linecap="round" stroke-linejoin="round" stroke-miterlimit="10" stroke-width="1.267" d="M47.4,34.8c0,0.8-0.6,1.4-1.3,1.4l0,0c-0.7,0-1.3-0.6-1.3-1.4v-7.4c0-1.9,1.4-3.4,3.1-3.4h5.6
					c1.7,0,3.1,1.5,3.1,3.4v7.4c0,0.8-0.6,1.4-1.3,1.4l0,0c-0.7,0-1.3-0.6-1.3-1.4"/><path fill="#f86c66" stroke="#0000db" stroke-linecap="round" stroke-linejoin="round" stroke-miterlimit="10" stroke-width="1.267" d="M54,30v6.3V37v0.8v7.8c0,1-0.7,1.8-1.6,1.8l0,0c-0.9,0-1.6-0.8-1.6-1.8V37v8.6c0,1-0.7,1.8-1.7,1.8l0,0
					c-0.9,0-1.7-0.8-1.7-1.8v-7.1V37v-0.7V30"/><polyline fill="none" stroke="#ff9d23" stroke-linecap="round" stroke-linejoin="round" stroke-miterlimit="10" stroke-width="1.387" points="0 33.5 1.9 31.6 3.6 33.3"/><polyline fill="none" stroke="#9495fa" stroke-linecap="round" stroke-linejoin="round" stroke-miterlimit="10" stroke-width="1.267" points="60.7 39.6 62.4 37.8 64 39.4"/><line x1="4.9" x2="2.4" y1="22" y2="24.6" fill="none" stroke="#9495fa" stroke-linecap="round" stroke-linejoin="round" stroke-miterlimit="10" stroke-width="1.387"/><line x1="62" x2="59.3" y1="21.7" y2="24.4" fill="none" stroke="#ff9d23" stroke-linecap="round" stroke-linejoin="round" stroke-miterlimit="10" stroke-width="1.387"/><line x1="20.9" x2="18.2" y1="54.4" y2="57.1" fill="none" stroke="#0000db" stroke-linecap="round" stroke-linejoin="round" stroke-miterlimit="10" stroke-width="1.267"/><line x1="43.1" x2="40.3" y1="51.8" y2="54.5" fill="none" stroke="#ff4b4d" stroke-linecap="round" stroke-linejoin="round" stroke-miterlimit="10" stroke-width="1.267"/></svg>